<?xml version="1.0" standalone="no"?>
<!DOCTYPE svg PUBLIC "-//W3C//DTD SVG 20010904//EN"
 "http://www.w3.org/TR/2001/REC-SVG-20010904/DTD/svg10.dtd">
<svg version="1.0" xmlns="http://www.w3.org/2000/svg"
 width="530.000000pt" height="530.000000pt" viewBox="0 0 530.000000 530.000000"
 preserveAspectRatio="xMidYMid meet">

<g transform="translate(0.000000,530.000000) scale(0.100000,-0.100000)"
fill="#000000" stroke="none">
<path d="M2450 5019 c-155 -14 -383 -63 -538 -115 -507 -169 -944 -507 -1235
-955 -415 -637 -498 -1449 -221 -2159 117 -300 283 -556 514 -794 761 -784
1973 -942 2917 -378 541 322 934 854 1084 1467 52 213 64 318 64 570 0 259
-14 370 -70 591 -239 933 -1006 1619 -1967 1759 -136 19 -411 27 -548 14z
m540 -448 c621 -108 1136 -485 1423 -1043 93 -180 162 -401 192 -609 19 -134
19 -423 0 -556 -96 -677 -535 -1250 -1164 -1521 -530 -228 -1127 -211 -1646
47 -569 282 -951 800 -1062 1441 -21 120 -24 477 -5 595 107 651 492 1181
1067 1466 213 106 434 171 680 199 120 13 382 4 515 -19z"/>
<path d="M2658 4511 c-25 -20 -102 -60 -218 -115 -222 -104 -372 -257 -424
-435 -22 -75 -20 -222 3 -279 14 -36 495 -757 511 -767 3 -2 32 4 64 13 l58
17 -6 85 c-4 47 -16 150 -27 229 l-21 144 28 23 c47 38 61 38 104 4 21 -17 37
-36 35 -43 -8 -20 -43 -277 -50 -362 l-7 -80 58 -17 c32 -9 61 -15 65 -12 11
6 504 725 523 762 9 17 19 65 23 106 12 147 -36 282 -142 395 -98 104 -182
161 -352 234 -56 25 -125 61 -152 80 -49 35 -50 36 -73 18z"/>
<path d="M1523 3680 c-151 -27 -245 -90 -461 -308 l-172 -174 15 -51 c8 -29
19 -92 25 -141 32 -264 107 -439 237 -555 97 -86 235 -139 337 -128 28 3 237
62 465 131 227 69 414 126 416 126 2 0 3 29 3 64 l0 65 -67 15 c-36 9 -139 28
-227 43 l-161 26 -16 49 -15 48 40 31 39 32 137 -66 c144 -69 283 -129 288
-125 1 2 17 26 36 54 l34 51 -278 354 c-152 195 -295 368 -316 384 -76 61
-243 95 -359 75z"/>
<path d="M3634 3675 c-65 -14 -143 -51 -185 -87 -33 -28 -559 -706 -559 -720
0 -6 10 -23 23 -38 12 -15 27 -35 33 -45 10 -18 12 -18 55 -1 24 9 119 54 211
98 l167 81 39 -32 40 -31 -16 -49 -15 -49 -107 -17 c-59 -9 -160 -29 -225 -44
l-119 -26 0 -65 0 -64 435 -129 c477 -141 498 -144 609 -107 87 29 148 69 215
142 104 113 163 269 189 510 9 75 22 155 30 177 l14 41 -150 150 c-83 83 -177
169 -210 191 -162 110 -319 148 -474 114z"/>
<path d="M2605 2855 c-76 -27 -145 -124 -145 -204 0 -90 79 -189 168 -211 79
-19 143 0 202 59 93 93 93 211 1 302 -66 66 -141 84 -226 54z"/>
<path d="M1970 2369 c-234 -82 -440 -160 -458 -172 -45 -30 -126 -139 -153
-206 -31 -79 -38 -243 -14 -343 23 -94 68 -200 134 -313 28 -49 61 -115 72
-146 l21 -56 64 -7 c36 -4 109 -16 162 -28 75 -17 131 -22 247 -22 138 0 156
2 228 27 169 59 299 183 335 322 6 22 16 189 21 370 6 182 13 380 17 441 l6
111 -64 20 c-34 12 -63 21 -64 20 0 -1 -30 -54 -67 -117 -36 -63 -85 -153
-109 -199 l-44 -84 -48 0 c-54 0 -59 4 -76 56 l-12 37 122 127 c67 70 138 146
157 170 l36 44 -22 27 c-12 15 -26 37 -33 50 -6 12 -16 22 -22 22 -6 -1 -202
-68 -436 -151z"/>
<path d="M2918 2470 l-38 -51 79 -87 c43 -48 114 -123 158 -166 l80 -80 -15
-48 -16 -48 -55 0 -56 1 -34 71 c-34 69 -167 306 -179 320 -4 4 -32 -2 -62
-12 l-55 -19 3 -306 c2 -169 6 -384 11 -479 7 -163 9 -174 37 -226 64 -120
200 -223 335 -255 101 -23 281 -20 420 9 64 14 147 28 185 32 l69 7 98 196
c99 201 130 290 142 411 18 188 -79 395 -222 472 -27 15 -156 64 -288 111
-132 47 -309 110 -394 141 -84 31 -156 56 -160 56 -3 0 -23 -23 -43 -50z"/>
</g>
</svg>
